# AST/ASF file generated using VICON BodyLanguage
# -----------------------------------------------
:version 1.10
:name VICON
:units
  mass 1.0
  length 0.45
  angle deg
:documentation
   .ast/.asf automatically generated from VICON data using
   VICON BodyBuilder and BodyLanguage model FoxedUp or BRILLIANT.MOD
:root
   order TX TY TZ RX RY RZ
   axis XYZ
   position 0 0 0  
   orientation 0 0 0 
:bonedata
  begin
     id 1 
     name lhipjoint
     direction 0.643272 -0.706573 0.294883 
     length 2.58915 
     axis 0 0 0  XYZ
  end
  begin
     id 2 
     name lfemur
     direction 0.34202 -0.939693 0  
     length 7.06802  
     axis 0 0 20  XYZ
    dof rx ry rz
    limits (-160.0 20.0)
           (-70.0 70.0)
           (-60.0 70.0)
  end
  begin
     id 3 
     name ltibia
     direction 0.34202 -0.939693 0   
     length 7.94147   
     axis 0 0 20   XYZ
    dof rx
    limits (-10.0 170.0)
  end
  begin
     id 4 
     name lfoot
     direction 0.0435058 -0.119531 0.991877   
     length 1.8399   
     axis -90 7.62852e-016 20   XYZ
    dof rx rz
    limits (-45.0 90.0)
           (-70.0 20.0)
  end
  begin
     id 5 
     name ltoes
     direction 1.53505e-011 -4.22157e-011 1   
     length 0.934412   
     axis -90 7.62852e-016 20   XYZ
    dof rx
    limits (-90.0 20.0)
  end
  begin
     id 6 
     name rhipjoint
     direction -0.636801 -0.711547 0.296959   
     length 2.57105  
     axis 0 0 0  XYZ 
  end
  begin
     id 7 
     name rfemur
     direction -0.34202 -0.939693 0   
     length 7.03285   
     axis 0 0 -20   XYZ
    dof rx ry rz
    limits (-160.0 20.0)
           (-70.0 70.0)
           (-70.0 60.0)
  end
  begin
     id 8 
     name rtibia
     direction -0.34202 -0.939693 0   
     length 7.99111   
     axis 0 0 -20   XYZ
    dof rx
    limits (-10.0 170.0)
 end
 begin
     id 9 
     name rfoot
     direction -0.0783088 -0.215152 0.973436   
     length 1.98785  
     axis -90 -7.62852e-016 -20   XYZ
    dof rx rz
    limits (-45.0 90.0)
           (-20.0 70.0)
  end
  begin
     id 10 
     name rtoes
     direction -1.53606e-011 -4.21943e-011 1   
     length 1.001   
     axis -90 -7.62852e-016 -20   XYZ
    dof rx
    limits (-90.0 20.0)
  end
  begin
     id 11 
     name lowerback
     direction 0.00141527 0.998403 -0.0564763   
     length 2.30486   
     axis 0 0 0   XYZ
    dof rx ry rz
    limits (-20.0 45.0)
           (-30.0 30.0)
           (-30.0 30.0)
  end
  begin
     id 12 
     name upperback
     direction 0.0125137 0.999915 0.00361315   
     length 2.30697   
     axis 0 0 0   XYZ
    dof rx ry rz
    limits (-20.0 45.0)
           (-30.0 30.0)
           (-30.0 30.0)
  end
  begin
     id 13 
     name thorax
     direction 0.0136417 0.999471 0.0295116   
     length 2.31005   
     axis 0 0 0   XYZ
    dof rx ry rz
    limits (-20.0 45.0)
           (-30.0 30.0)
           (-30.0 30.0)
  end
  begin
     id 14 
     name lowerneck
     direction 0.0766806 0.997047 0.00422047   
     length 1.68825   
     axis 0 0 0   XYZ
    dof rx ry rz
    limits (-20.0 45.0)
           (-30.0 30.0)
           (-30.0 30.0)
  end
  begin
     id 15 
     name upperneck
     direction -0.143512 0.985106 -0.0947088   
     length 1.69772   
     axis 0 0 0   XYZ
    dof rx ry rz
    limits (-20.0 45.0)
           (-30.0 30.0)
           (-30.0 30.0)
  end
  begin
     id 16
     name head
     direction -0.0539128 0.997849 -0.0372864  
     length 1.71187  
     axis 0 0 0   XYZ
    dof rx ry rz
    limits (-20.0 45.0)
           (-30.0 30.0)
           (-30.0 30.0)
  end
  begin
     id 17 
     name lclavicle
     direction 0.978251 0.207416 -0.00165765  
     length 3.35399  
     axis 0 0 0   XYZ
    dof ry rz
    limits (-20.0 10.0)
           (0.0 20.0)
  end
  begin
     id 18 
     name lhumerus
     direction 1 -4.48966e-011 -1.32191e-028   
     length 5.70706   
     axis 180 -30 -90   XYZ
    dof rx ry rz
    limits (-60.0 90.0)
           (-90.0 90.0)
           (-90.0 90.0)
  end
  begin
     id 19
     name lradius
     direction 1 -4.48976e-011 9.36106e-027   
     length 3.33243   
     axis 180 -30 -90   XYZ
    dof rx
    limits (-10.0 170.0)
  end
  begin
     id 20
     name lwrist
     direction 1 -4.48976e-011 1.1555e-026   
     length 1.66621   
     axis -5.7412e-015 90 90   XYZ
    dof ry
    limits (-180.0 0.0)
 end
  begin
     id 21 
     name lhand
     direction 1 -4.48939e-011 2.31113e-026   
     length 0.792687   
     axis -1.47463e-014 90 90   XYZ
    dof rx rz
    limits (-90.0 90.0)
           (-45.0 45.0)
  end
  begin
     id 22 
     name lfingers
     direction 1 -4.48866e-011 4.62274e-026   
     length 0.639085   
     axis -2.94925e-014 90 90   XYZ
    dof rx
    limits (0.0 90.0)
  end
  begin
     id 23
     name lthumb
     direction 0.707107 -6.34847e-011 0.707107   
     length 0.917601   
     axis -90 45 -6.68868e-015   XYZ
    dof rx rz
    limits (-45.0 45.0)
           (-45.0 45.0)
  end
  begin
     id 24 
     name rclavicle
     direction -0.981813 0.185514 0.0403428   
     length 3.47271  
     axis 0 0 0   XYZ 
    dof ry rz
    limits (-10.0 20.0)
           (-20.0 0.0)
  end
  begin
     id 25 
     name rhumerus
     direction -1 -4.48972e-011 -6.58544e-029  
     length 5.88176   
     axis 180 30 90   XYZ
    dof rx ry rz
    limits (-90.0 60.0)
           (-90.0 90.0)
           (-90.0 90.0)
  end
  begin
     id 26 
     name rradius
     direction -1 -4.48964e-011 8.36306e-027   
     length 3.28156   
     axis 180 30 90   XYZ
    dof rx
    limits (-10.0 170.0)
  end
  begin
     id 27 
     name rwrist
     direction -1 -4.48903e-011 1.15562e-026   
     length 1.64078   
     axis -5.7412e-015 -90 -90   XYZ
    dof ry
    limits (-180.0 0.0)
  end
  begin
     id 28
     name rhand
     direction -1 -4.49055e-011 2.31074e-026   
     length 0.863125   
     axis -1.47463e-014 -90 -90   XYZ
    dof rx rz
    limits (-90.0 90.0)
           (-45.0 45.0)
  end
  begin
     id 29
     name rfingers
     direction -1 -4.48994e-011 4.62188e-026   
     length 0.695873   
     axis -2.94925e-014 -90 -90   XYZ
    dof rx
    limits (0.0 90.0)
  end
  begin
     id 30
     name rthumb
     direction -0.707107 -6.35058e-011 0.707107   
     length 0.999139   
     axis -90 -45 6.68868e-015   XYZ
    dof rx rz
    limits (-45.0 45.0)
           (-45.0 45.0)
  end
:hierarchy
  begin
    root lhipjoint rhipjoint lowerback
    lhipjoint lfemur
    lfemur ltibia
    ltibia lfoot
    lfoot ltoes
    rhipjoint rfemur
    rfemur rtibia
    rtibia rfoot
    rfoot rtoes
    lowerback upperback
    upperback thorax
    thorax lowerneck lclavicle rclavicle
    lowerneck upperneck
    upperneck head
    lclavicle lhumerus
    lhumerus lradius
    lradius lwrist
    lwrist lhand lthumb
    lhand lfingers
    rclavicle rhumerus
    rhumerus rradius
    rradius rwrist
    rwrist rhand rthumb
    rhand rfingers
  end

#!OML:ASF \\Waltz\H\Terrain\Patient Classification 1\Animal2\Wednesday\Animal2.ASF
:FULLY-SPECIFIED
:DEGREES
1499
root -0.63915 16.4884 6.0547 -2.46313 -0.336942 10.4374
lowerback 8.0222 -1.80043 -1.87689
upperback -3.19568 -3.07361 -5.82052
thorax -8.13976 -1.58825 -4.67063
lowerneck 1.82136 -2.06801 12.083
upperneck -1.3156 -2.68641 -11.8712
head -1.01356 -1.2891 -5.52338
rclavicle -1.93815e-014 -7.59357e-014
rhumerus 25.6373 43.6683 -52.2054
rradius 97.3064
rwrist -22.8992
rhand -18.8265 19.9722
rfingers 7.12502
rthumb 7.47262 -9.87583
lclavicle -1.93815e-014 -7.59357e-014
lhumerus 26.1279 12.1412 12.9828
lradius 82.4812
lwrist 3.47126
lhand -50.1814 21.5227
lfingers 7.12502
lthumb -22.7632 50.1998
rfemur -25.7502 14.2765 4.17069
rtibia 77.4569
rfoot -26.381 -15.8784
rtoes 31.7921
lfemur -17.9653 8.57371 -34.0819
ltibia 48.0479
lfoot -25.7531 -8.37976
ltoes -3.44137
1500
root -0.664191 16.4811 6.08134 -2.45507 -0.287335 9.90579
lowerback 8.15623 -1.92174 -1.66635
upperback -3.33916 -3.21443 -5.62571
thorax -8.38195 -1.6635 -4.55655
lowerneck 1.25825 -2.64116 11.709
upperneck -0.27267 -3.44845 -11.3636
head -0.694116 -1.68761 -5.29561
rclavicle 1.99282e-014 1.98785e-014
rhumerus 25.4312 44.4114 -52.2535
rradius 97.5751
rwrist -23.2534
rhand -18.5575 20.0258
rfingers 7.12502
rthumb 7.73229 -9.81283
lclavicle 1.99282e-014 1.98785e-014
lhumerus 25.4608 11.8672 12.6448
lradius 83.0695
lwrist 3.57628
lhand -50.507 21.8778
lfingers 7.12502
lthumb -23.0756 50.5161
rfemur -25.3016 14.4828 3.88788
rtibia 76.7117
rfoot -26.6657 -16.6197
rtoes 33.1784
lfemur -18.0637 8.18779 -33.4426
ltibia 48.4963
lfoot -26.1913 -7.71689
ltoes -5.01746
1501
root -0.687583 16.4764 6.1063 -2.39 -0.185081 9.23659
lowerback 7.87557 -1.97662 -1.57511
upperback -3.17916 -3.21718 -5.18408
thorax -8.01797 -1.65214 -4.13628
lowerneck 0.397666 -3.27797 11.2764
upperneck 0.422256 -4.35198 -11.1772
head -0.442203 -2.16305 -5.1653
rclavicle -1.55797e-014 1.51076e-014
rhumerus 26.2268 45.0474 -50.941
rradius 97.8509
rwrist -23.7502
rhand -18.6092 20.562
rfingers 7.12502
rthumb 7.68237 -9.27842
lclavicle -1.55797e-014 1.51076e-014
lhumerus 25.2204 12.1687 13.0371
lradius 83.4223
lwrist 3.50457
lhand -50.6552 22.075
lfingers 7.12502
lthumb -23.2178 50.6954
rfemur -24.9124 14.616 3.71271
rtibia 75.7972
rfoot -26.7098 -17.3332
rtoes 34.1213
lfemur -18.2156 7.7905 -32.6674
ltibia 48.9341
lfoot -26.623 -7.18482
ltoes -6.0114
1502
root -0.717417 16.4647 6.12531 -2.47754 -0.0370626 8.78937
lowerback 7.85103 -1.99956 -1.72275
upperback -2.97904 -3.22482 -4.85867
thorax -7.75674 -1.6355 -3.70256
lowerneck -0.655369 -3.87354 10.8763
upperneck 1.32453 -5.19793 -10.8555
head -0.0829026 -2.61453 -5.01536
rclavicle 1.93815e-014 -1.80894e-014
rhumerus 26.7393 45.52 -49.8514
rradius 98.1342
rwrist -23.2125
rhand -18.4132 21.2468
rfingers 7.12502
rthumb 7.87159 -8.58667
lclavicle 1.93815e-014 -1.80894e-014
lhumerus 25.2723 12.4246 13.3846
lradius 83.6748
lwrist 3.32061
lhand -50.5605 22.7781
lfingers 7.12502
lthumb -23.127 51.41
rfemur -24.323 14.7584 3.27859
rtibia 74.7511
rfoot -27.3585 -17.3606
rtoes 34.9077
lfemur -18.2523 7.41393 -32.096
ltibia 49.3559
lfoot -26.9182 -6.73908
ltoes -7.04483
1503
root -0.752557 16.4588 6.1481 -2.64042 0.102852 8.37676
lowerback 7.96829 -1.99655 -2.08563
upperback -2.82947 -3.22643 -4.46284
thorax -7.61621 -1.60463 -3.07233
lowerneck -1.49023 -4.42325 10.4213
upperneck 2.23321 -5.95667 -10.451
head 0.262626 -3.01468 -4.8388
rclavicle 1.50828e-014 -2.14687e-014
rhumerus 26.6792 45.7963 -49.2823
rradius 98.2087
rwrist -22.4122
rhand -17.729 21.6278
rfingers 7.12502
rthumb 8.53187 -8.17982
lclavicle 1.50828e-014 -2.14687e-014
lhumerus 25.2129 12.5144 13.6134
lradius 83.9415
lwrist 3.24618
lhand -50.7276 23.2441
lfingers 7.12502
lthumb -23.2873 51.8558
rfemur -23.5314 14.88 2.85956
rtibia 73.5696
rfoot -28.0046 -17.4927
rtoes 35.6787
lfemur -18.1653 6.95301 -31.5532
ltibia 49.7438
lfoot -27.1768 -6.13375
ltoes -8.45455
1504
root -0.781493 16.469 6.17673 -2.63322 0.142877 7.66741
lowerback 7.79451 -2.05552 -1.93589
upperback -2.68491 -3.24804 -4.13203
thorax -7.34702 -1.61315 -2.8074
lowerneck -2.05872 -4.98873 10.3031
upperneck 2.84109 -6.73564 -10.1525
head 0.466271 -3.41472 -4.74466
rclavicle 5.11871e-015 -2.08724e-014
rhumerus 26.7683 46.011 -48.9857
rradius 98.1901
rwrist -21.9109
rhand -17.4454 20.9491
rfingers 7.12502
rthumb 8.80554 -8.84719
lclavicle 5.11871e-015 -2.08724e-014
lhumerus 25.1035 12.6804 13.518
lradius 84.2491
lwrist 3.42257
lhand -50.9477 22.846
lfingers 7.12502
lthumb -23.4984 51.4308
rfemur -22.8356 14.981 2.75237
rtibia 72.2128
rfoot -27.5163 -18.1788
rtoes 37.0203
lfemur -18.1982 6.47896 -30.7319
ltibia 50.0993
lfoot -27.5166 -5.44159
ltoes -9.90035
1505
root -0.808898 16.4813 6.20256 -2.54866 0.122468 6.82722
lowerback 7.39058 -2.18229 -1.2343
upperback -2.42089 -3.31067 -4.06782
thorax -6.87006 -1.67464 -3.13914
lowerneck -2.35918 -5.55876 10.2371
upperneck 2.92902 -7.53559 -9.3697
head 0.493719 -3.8097 -4.49691
rclavicle -3.77442e-014 -3.85642e-014
rhumerus 27.194 46.0443 -48.8866
rradius 98.3355
rwrist -21.5149
rhand -16.7042 21.4464
rfingers 7.12502
rthumb 9.5208 -8.31846
lclavicle -3.77442e-014 -3.85642e-014
lhumerus 25.1638 13.0503 13.0016
lradius 84.5097
lwrist 3.48592
lhand -51.0639 22.2678
lfingers 7.12502
lthumb -23.6099 50.8382
rfemur -22.2144 15.1582 2.76104
rtibia 70.7878
rfoot -27.264 -18.4993
rtoes 38.3525
lfemur -18.373 6.17437 -29.7441
ltibia 50.5763
lfoot -27.8788 -4.91667
ltoes -11.1617
